<?xml version="1.0" encoding="UTF-8"?>
<!--Generator: Apple Native CoreSVG 175.5-->
<!DOCTYPE svg
PUBLIC "-//W3C//DTD SVG 1.1//EN"
       "http://www.w3.org/Graphics/SVG/1.1/DTD/svg11.dtd">
<svg version="1.1" xmlns="http://www.w3.org/2000/svg" xmlns:xlink="http://www.w3.org/1999/xlink" width="21.9141" height="21.9248">
 <g>
  <rect height="21.9248" opacity="0" width="21.9141" x="0" y="0"/>
  <path d="M10.957 21.9141C16.9512 21.9141 21.9141 16.9404 21.9141 10.957C21.9141 4.96289 16.9404 0 10.9463 0C4.96289 0 0 4.96289 0 10.957C0 16.9404 4.97363 21.9141 10.957 21.9141Z" fill="#000000" fill-opacity="0.2125"/>
  <path d="M6.30566 15.8447C5.86523 15.8447 5.54297 15.5439 5.54297 15.1143L5.54297 6.78906C5.54297 6.35938 5.86523 6.05859 6.30566 6.05859C6.72461 6.05859 7.03613 6.35938 7.03613 6.78906L7.03613 15.1143C7.03613 15.5439 6.72461 15.8447 6.30566 15.8447ZM17.9287 10.9678C17.9287 11.4189 17.6064 11.7197 17.1768 11.7197L12.1064 11.7197L10.0654 11.5908L12.3213 13.5889L13.0195 14.2334C13.1807 14.3623 13.2451 14.5449 13.2451 14.7705C13.2451 15.2002 12.9443 15.4902 12.5146 15.4902C12.332 15.4902 12.0957 15.3936 11.9561 15.2432L8.14258 11.5264C7.95996 11.3652 7.88477 11.1719 7.88477 10.9678C7.88477 10.7529 7.98145 10.5703 8.14258 10.3984L11.9668 6.64941C12.1172 6.47754 12.3105 6.41309 12.5039 6.41309C12.9229 6.41309 13.2451 6.70312 13.2451 7.12207C13.2451 7.32617 13.1807 7.53027 13.0195 7.66992L12.332 8.34668L10.0762 10.3447L12.1064 10.2266L17.1768 10.2266C17.6064 10.2266 17.9287 10.5381 17.9287 10.9678Z" fill="#000000" fill-opacity="0.85"/>
 </g>
</svg>
