<?xml version="1.0" encoding="UTF-8"?>
<!--Generator: Apple Native CoreSVG 175.5-->
<!DOCTYPE svg
PUBLIC "-//W3C//DTD SVG 1.1//EN"
       "http://www.w3.org/Graphics/SVG/1.1/DTD/svg11.dtd">
<svg version="1.1" xmlns="http://www.w3.org/2000/svg" xmlns:xlink="http://www.w3.org/1999/xlink" width="10.5059" height="18.6592">
 <g>
  <rect height="18.6592" opacity="0" width="10.5059" x="0" y="0"/>
  <path d="M10.5059 9.32422C10.5059 9.05566 10.3984 8.80859 10.1943 8.61523L1.68652 0.279297C1.49316 0.0966797 1.25684 0 0.977539 0C0.429688 0 0 0.418945 0 0.977539C0 1.24609 0.107422 1.49316 0.279297 1.67578L8.09961 9.32422L0.279297 16.9727C0.107422 17.1553 0 17.3916 0 17.6709C0 18.2295 0.429688 18.6484 0.977539 18.6484C1.25684 18.6484 1.49316 18.5518 1.68652 18.3584L10.1943 10.0332C10.3984 9.8291 10.5059 9.59277 10.5059 9.32422Z" fill="#000000" fill-opacity="0.85"/>
 </g>
</svg>
