<?xml version="1.0" encoding="UTF-8"?>
<!--Generator: Apple Native CoreSVG 175.5-->
<!DOCTYPE svg
PUBLIC "-//W3C//DTD SVG 1.1//EN"
       "http://www.w3.org/Graphics/SVG/1.1/DTD/svg11.dtd">
<svg version="1.1" xmlns="http://www.w3.org/2000/svg" xmlns:xlink="http://www.w3.org/1999/xlink" width="20.9902" height="21.1943">
 <g>
  <rect height="21.1943" opacity="0" width="20.9902" x="0" y="0"/>
  <path d="M0 8.57227C0 13.2988 3.8457 17.1445 8.57227 17.1445C10.4414 17.1445 12.1494 16.543 13.5566 15.5332L18.8418 20.8291C19.0889 21.0762 19.4111 21.1943 19.7549 21.1943C20.4854 21.1943 20.9902 20.6465 20.9902 19.9268C20.9902 19.583 20.8613 19.2715 20.6357 19.0459L15.3828 13.7607C16.4893 12.3213 17.1445 10.5273 17.1445 8.57227C17.1445 3.8457 13.2988 0 8.57227 0C3.8457 0 0 3.8457 0 8.57227ZM1.83691 8.57227C1.83691 4.85547 4.85547 1.83691 8.57227 1.83691C12.2891 1.83691 15.3076 4.85547 15.3076 8.57227C15.3076 12.2891 12.2891 15.3076 8.57227 15.3076C4.85547 15.3076 1.83691 12.2891 1.83691 8.57227Z" fill="#000000" fill-opacity="0.85"/>
 </g>
</svg>
